<?xml version="1.0"?>
<svg xmlns="http://www.w3.org/2000/svg" xmlns:xlink="http://www.w3.org/1999/xlink" version="1.1" id="Capa_1" x="0px" y="0px" viewBox="0 0 512 512" style="enable-background:new 0 0 512 512;" xml:space="preserve" width="512px" height="512px" class=""><g><g>
	<g>
		<path d="M256,0C114.844,0,0,114.844,0,256s114.844,256,256,256s256-114.844,256-256S397.156,0,256,0z M160.499,284.732    c19.142,10.674,38.836,23.301,58.98,36.268c5.303,3.413,10.631,6.84,15.98,10.254c-7.362,5.224-14.447,10.719-21.574,16.329    c-10.147,7.979-20.848,16.099-32.744,23.72c-28.337-17.397-74.131-24.781-108.006-27.814    c20.406-10.854,46.417-26.542,72.198-47.156C150.559,292.152,155.529,288.44,160.499,284.732z M255.273,343.699    c25.34,15.648,51.319,30.182,78.194,41.107c-29.128,10.738-56.957,25.457-80.978,40.217    c-12.768-7.792-24.427-17.204-37.604-28.003c-4.876-3.995-10.013-8.151-15.345-12.38c9.799-6.716,18.964-13.546,27.533-20.286    C236.484,356.947,245.579,349.956,255.273,343.699z M42.755,257.758c8.12-1.007,18.359-1.758,31.911-1.758    c20.53,0,42.243,7.087,64.823,17.887c-2.499,1.944-4.971,3.766-7.49,5.78c-27.665,22.139-55.996,38.423-76.385,48.815    C47.578,306.341,42.958,282.594,42.755,257.758z M72.917,364.948c27.293,2.482,61.855,7.72,86.344,18.703    c-21.217,10.04-42.126,15.438-58.413,18.319C90.245,390.706,80.895,378.302,72.917,364.948z M119.682,419.927    c18.234-4.32,39.549-11.469,60.701-23.161c7.456,5.767,14.452,11.413,20.982,16.755c10.641,8.719,20.684,16.892,31.396,24.191    c-12.928,8.638-24.204,16.806-33.335,23.766C169.797,453.307,142.673,439.077,119.682,419.927z M256,469.333    c-9.59,0-18.962-0.857-28.22-2.089c7.686-5.488,16.256-11.332,25.563-17.324c12.939,6.501,27.574,11.706,45.613,15.068    C285.077,467.837,270.71,469.333,256,469.333z M348.629,447.879c-31.982-0.288-54.609-4.477-73.103-11.607    c27.979-16.285,60.085-31.473,92.283-39.803c13.025,3.788,25.986,7.398,38.73,10.53    C389.78,423.707,370.15,437.445,348.629,447.879z M422.725,388.728c-4.79-1.109-9.456-2.025-14.302-3.236    c8.536-2.785,16.197-5.745,23.294-8.783C428.875,380.836,425.844,384.819,422.725,388.728z M371.021,373.583    c-1.031,0.229-2.055,0.561-3.085,0.803c-0.743-0.221-1.464-0.383-2.207-0.605c-30.25-9.078-59.78-24.491-88.664-41.811    c16.918-7.307,37.004-11.97,64.268-11.97c50.708,0,78.904,15.556,97.901,29.525C422.895,358.221,400.839,366.958,371.021,373.583z     M341.333,298.667c-38.197,0-64.24,8.243-85.794,20.03c-8.216-5.184-16.397-10.413-24.508-15.634    c-17.41-11.208-34.483-22.079-51.328-31.879c38.857-25.741,71.413-36.496,108.276-36.496c47.147,0,102.314,27.027,171.913,84.039    c-1.616,5.241-3.57,10.326-5.572,15.387C433.531,318.401,400.599,298.667,341.333,298.667z" data-original="#000000" class="active-path" data-old_color="#000000" fill="#FFFFFF"/>
	</g>
</g></g> </svg>
